<?xml version="1.0" encoding="utf-8"?>
<!-- Generator: Adobe Illustrator 19.2.1, SVG Export Plug-In . SVG Version: 6.00 Build 0)  -->
<svg version="1.1" id="Capa_1" xmlns="http://www.w3.org/2000/svg" xmlns:xlink="http://www.w3.org/1999/xlink" x="0px" y="0px"
	 viewBox="0 0 152.8 210.9" style="enable-background:new 0 0 152.8 210.9;" xml:space="preserve">
<style type="text/css">
	.st0{fill:#EC654F;}
</style>
<title>Artify</title>
<path class="st0" d="M115.2,94.4l-4.7-7.9l-3.1-5.3l-6.3-10.5L98,65.3L76.4,28.9L37.5,94.5c-3,5.2-1.2,11.8,4,14.7
	c5.1,2.9,11.5,1.3,14.6-3.7l20.3-34.3l5.9,9.9l-3.1,5.2c-1.9,3.3-1.9,7.3,0,10.6l0,0l6.3-10.5l0,0l3.1-5.3L76.4,60.6l-25,42.1
	c-1.5,2.6-4.8,3.4-7.4,1.9c-0.3-0.2-0.5-0.4-0.8-0.6c-0.6-0.5-1-1.1-1.3-1.8c-0.7-1.6-0.7-3.5,0.3-5l34.2-57.7l18.4,31.1l3.1,5.3
	l6.3,10.5l3.1,5.3l3.3,5.5c1.5,2.6,0.7,5.9-1.9,7.4c-2.6,1.5-5.9,0.7-7.4-1.9l-0.3-0.5L98,96.9l-3.1-5.2c-1-1.7-3.3-2.3-5-1.3
	c-0.5,0.3-1,0.8-1.3,1.3l0,0l6.3,10.5l1.9,3.2c0.4,0.7,0.9,1.3,1.4,1.8c1.4,1.5,3.2,2.6,5.2,3.1c0.9,0.2,1.8,0.3,2.7,0.3
	c5.1,0,9.5-3.7,10.5-8.7C117.1,99.4,116.6,96.7,115.2,94.4z"/>
<path class="st0" d="M76.4,0C37.8,0,6.5,31.2,6.5,69.8s31.2,69.9,69.8,69.9s69.9-31.2,69.9-69.8c0,0,0,0,0,0
	C146.2,31.3,115,0,76.4,0z M76.4,132c-34.3,0-62.1-27.8-62.1-62.1c0-34.3,27.8-62.1,62.1-62.1s62.1,27.8,62.1,62.1
	C138.5,104.2,110.7,132,76.4,132L76.4,132z"/>
<path class="st0" d="M17.4,153.4L0,198.5h8.9l3.7-9.3H31l3.5,9.3h8.9l-17.4-45.1H17.4L17.4,153.4z M15.8,180.8l6.1-15.5l6,15.5H15.8
	z"/>
<path class="st0" d="M56.7,165.6c-1.4,0.9-2.4,2.3-3.1,3.8v-4.2h-7.2v33.4h8.3v-13.5v-1.6c0-4.7,0.4-7.8,1.3-9.4
	c0.9-1.6,2-2.4,3.3-2.4c0.9,0.1,1.7,0.3,2.4,0.7l2.6-7.2c-1.1-0.5-2.2-0.8-3.4-0.9C59.4,164.3,58,164.7,56.7,165.6z"/>
<polygon class="st0" points="79.1,152.8 70.7,152.8 70.7,165.1 66.4,165.1 66.4,172.3 70.7,172.3 70.7,198.5 79.1,198.5 79.1,172.3 
	84.1,172.3 84.1,165.1 79.1,165.1 "/>
<rect x="88.3" y="165.1" class="st0" width="8.4" height="33.4"/>
<path class="st0" d="M92.5,151.4c-2.9,0-5.3,2.4-5.3,5.3v0c0,1.5,0.5,2.9,1.6,3.9c1,1,2.4,1.6,3.8,1.6c1.4,0,2.8-0.6,3.7-1.6
	c1-1,1.6-2.4,1.6-3.8c0-1.5-0.5-2.9-1.6-3.9C95.3,151.9,93.9,151.4,92.5,151.4z"/>
<path class="st0" d="M106.5,153c-1.3,1.1-2.1,2.7-2.3,4.4c-0.1,0.8-0.2,3.4-0.2,7.8h-3v7.1h3v26.3h8.4v-26.3h5.3v-7.1h-5.3V161
	c-0.1-0.7,0.1-1.4,0.5-1.9c0.6-0.5,1.4-0.7,2.2-0.6c1,0,2,0.2,3,0.5v-6.4c-1.9-0.7-3.9-1.1-5.9-1.2
	C110.1,151.3,108.1,151.8,106.5,153z"/>
<polygon class="st0" points="144.8,165.1 136,181.7 127.9,165.1 120,165.1 131.8,189.6 125.4,201.2 133.4,201.2 152.8,165.1 "/>
<path class="st0" d="M22.1,202.8l-1,0.9c-0.6-0.7-1.4-1-2.3-1.1c-1.4,0-2.5,1.1-2.5,2.4c0,0,0,0.1,0,0.1c0,0.5,0.1,0.9,0.3,1.3
	c0.2,0.4,0.5,0.7,0.9,0.9c0.4,0.2,0.9,0.3,1.3,0.3c0.4,0,0.8-0.1,1.1-0.2c0.4-0.2,0.8-0.5,1.1-0.8l1,1c-0.4,0.5-1,0.8-1.5,1.1
	c-0.5,0.2-1.1,0.3-1.7,0.3c-1.1,0-2.1-0.4-2.8-1.1c-0.7-0.7-1.1-1.8-1.1-2.8c0-0.7,0.2-1.4,0.5-2c0.3-0.6,0.8-1.1,1.4-1.4
	c0.6-0.3,1.3-0.5,2-0.5C20.1,201.3,21.3,201.8,22.1,202.8z"/>
<path class="st0" d="M25.8,203.2c0.5,0,1,0.1,1.5,0.4c0.4,0.2,0.8,0.6,1.1,1.1c0.3,0.4,0.4,0.9,0.4,1.4c0,0.5-0.1,1-0.4,1.5
	c-0.2,0.4-0.6,0.8-1,1.1c-0.4,0.3-1,0.4-1.5,0.4c-0.8,0-1.5-0.3-2-0.8c-1.1-1.1-1.1-3,0-4.1c0,0,0,0,0.1-0.1
	C24.5,203.5,25.1,203.2,25.8,203.2z M25.8,204.5c-0.4,0-0.8,0.2-1.1,0.4c-0.3,0.3-0.4,0.7-0.4,1.1c0,0.4,0.1,0.8,0.4,1.2
	c0.3,0.3,0.7,0.5,1.1,0.4c0.4,0,0.8-0.2,1.1-0.5c0.6-0.7,0.6-1.6,0-2.3C26.6,204.7,26.3,204.5,25.8,204.5L25.8,204.5z"/>
<path class="st0" d="M30.1,203.4h1.4v0.7c0.2-0.2,0.5-0.4,0.8-0.6c0.3-0.1,0.6-0.2,0.9-0.2c0.3,0,0.6,0.1,0.9,0.3
	c0.3,0.2,0.5,0.4,0.7,0.7c0.2-0.3,0.5-0.6,0.8-0.7c0.3-0.2,0.7-0.2,1-0.3c0.4,0,0.7,0.1,1,0.3c0.3,0.2,0.5,0.4,0.6,0.7
	c0.2,0.5,0.2,0.9,0.2,1.4v3.2H37v-2.9c0-0.4,0-0.9-0.2-1.3c-0.2-0.2-0.4-0.3-0.7-0.3c-0.2,0-0.4,0.1-0.6,0.2
	c-0.2,0.1-0.3,0.3-0.4,0.6c-0.1,0.4-0.2,0.8-0.1,1.1v2.5h-1.4v-2.7c0-0.4,0-0.7-0.1-1.1c-0.1-0.2-0.2-0.4-0.3-0.5
	c-0.2-0.1-0.3-0.2-0.5-0.2c-0.2,0-0.4,0.1-0.6,0.2c-0.2,0.1-0.3,0.3-0.4,0.6c-0.1,0.4-0.2,0.8-0.1,1.2v2.4H30v-5.5L30.1,203.4z"/>
<path class="st0" d="M40,203.4h1.4v2.7c0,0.4,0,0.7,0.1,1.1c0.1,0.2,0.2,0.4,0.3,0.5c0.2,0.1,0.4,0.2,0.6,0.2c0.2,0,0.4,0,0.6-0.2
	c0.2-0.1,0.3-0.3,0.4-0.5c0.1-0.3,0.1-0.7,0.1-1v-2.7h1.4v2.3c0,0.7,0,1.4-0.2,2c-0.2,0.4-0.5,0.8-0.8,1c-0.4,0.2-0.9,0.4-1.4,0.4
	c-0.5,0-1-0.1-1.5-0.4c-0.4-0.3-0.6-0.7-0.8-1.1c-0.1-0.6-0.2-1.2-0.2-1.8v-2.3L40,203.4z"/>
<path class="st0" d="M46.4,203.4h1.4v0.6c0.3-0.2,0.5-0.4,0.8-0.6c0.2-0.1,0.5-0.2,0.8-0.1c0.5,0,1,0.2,1.4,0.6
	c0.3,0.4,0.5,0.9,0.5,1.4v3.6h-1.4v-2.4c0-0.4,0-0.9-0.1-1.3c0-0.2-0.2-0.4-0.3-0.5c-0.2-0.1-0.3-0.2-0.5-0.2
	c-0.3,0-0.5,0.1-0.7,0.3c-0.2,0.2-0.4,0.5-0.4,0.8c-0.1,0.4-0.1,0.7-0.1,1.1v2.2h-1.4V203.4L46.4,203.4z"/>
<path class="st0" d="M53.5,201.1c0.2,0,0.5,0.1,0.6,0.3c0.2,0.2,0.3,0.4,0.3,0.6c0,0.2-0.1,0.5-0.3,0.6c-0.2,0.2-0.4,0.3-0.6,0.3
	c-0.2,0-0.5-0.1-0.6-0.3c-0.2-0.2-0.3-0.4-0.3-0.6C52.6,201.5,53,201.1,53.5,201.1C53.4,201.1,53.4,201.1,53.5,201.1z M52.8,203.4
	h1.4v5.5h-1.4V203.4z"/>
<path class="st0" d="M55.9,201.4h1.4v2h0.8v1.2h-0.8v4.3h-1.4v-4.3h-0.7v-1.2h0.7V201.4z"/>
<path class="st0" d="M58.8,203.4h1.4l1.4,3.4l1.6-3.4h1.4l-3.4,7.5h-1.4l1.1-2.4L58.8,203.4z"/>
<path class="st0" d="M72.7,203.4h1.4v5.5h-1.4v-0.6c-0.2,0.2-0.5,0.4-0.8,0.5c-0.3,0.1-0.6,0.2-0.9,0.2c-0.7,0-1.4-0.3-1.8-0.8
	c-0.5-0.5-0.8-1.3-0.8-2c0-0.8,0.3-1.5,0.8-2.1c0.5-0.5,1.1-0.8,1.8-0.8c0.3,0,0.6,0.1,0.9,0.2c0.3,0.1,0.6,0.3,0.8,0.6L72.7,203.4
	L72.7,203.4z M71.3,204.5c-0.4,0-0.8,0.2-1.1,0.4c-0.3,0.3-0.4,0.7-0.4,1.2c0,0.4,0.1,0.9,0.4,1.2c0.3,0.3,0.7,0.5,1.1,0.5
	c0.4,0,0.8-0.2,1.1-0.5c0.3-0.3,0.4-0.7,0.4-1.2c0-0.4-0.1-0.8-0.4-1.2C72.1,204.7,71.7,204.5,71.3,204.5L71.3,204.5z"/>
<path class="st0" d="M75.7,203.4h1.4v0.6c0.3-0.2,0.5-0.4,0.8-0.6c0.2-0.1,0.5-0.2,0.8-0.1c0.5,0,1,0.2,1.4,0.6
	c0.3,0.4,0.5,0.9,0.5,1.4v3.6h-1.4v-2.4c0-0.4,0-0.9-0.1-1.3c0-0.2-0.2-0.4-0.3-0.5c-0.2-0.1-0.3-0.2-0.5-0.2
	c-0.3,0-0.5,0.1-0.7,0.3c-0.2,0.2-0.4,0.5-0.4,0.8c-0.1,0.4-0.1,0.7-0.1,1.1v2.2h-1.4L75.7,203.4L75.7,203.4z"/>
<path class="st0" d="M86.2,201.3h1.4v7.6h-1.4v-0.6c-0.2,0.2-0.5,0.4-0.8,0.5c-0.3,0.1-0.6,0.2-0.9,0.2c-0.7,0-1.4-0.3-1.8-0.8
	c-0.5-0.5-0.8-1.3-0.8-2c0-0.8,0.2-1.5,0.8-2.1c0.5-0.5,1.1-0.8,1.8-0.8c0.3,0,0.6,0.1,0.9,0.2c0.3,0.1,0.6,0.3,0.8,0.6L86.2,201.3
	L86.2,201.3z M84.8,204.5c-0.4,0-0.8,0.2-1.1,0.4c-0.3,0.3-0.4,0.7-0.4,1.2c0,0.4,0.1,0.9,0.4,1.2c0.3,0.3,0.7,0.5,1.1,0.5
	c0.4,0,0.8-0.2,1.1-0.5c0.3-0.3,0.4-0.7,0.4-1.2c0-0.4-0.1-0.8-0.4-1.2C85.6,204.7,85.2,204.5,84.8,204.5L84.8,204.5z"/>
<path class="st0" d="M91.6,203.4h0.5c0-0.7,0-1.1,0-1.3c0-0.3,0.2-0.5,0.4-0.7c0.3-0.2,0.6-0.3,0.9-0.3c0.3,0,0.7,0.1,1,0.2v1
	c-0.2-0.1-0.3-0.1-0.5-0.1c-0.1,0-0.2,0-0.3,0.1c-0.1,0.1-0.1,0.2-0.1,0.3v0.7h0.9v1.2h-0.9v4.3h-1.4v-4.3h-0.5V203.4L91.6,203.4z"
	/>
<path class="st0" d="M95.2,203.4h1.2v0.7c0.1-0.2,0.3-0.5,0.5-0.6c0.2-0.1,0.5-0.2,0.7-0.2c0.2,0,0.4,0.1,0.6,0.1l-0.4,1.2
	c-0.1-0.1-0.3-0.1-0.4-0.1c-0.2,0-0.4,0.2-0.5,0.4c-0.2,0.5-0.3,1-0.2,1.5v2.5h-1.4V203.4L95.2,203.4z"/>
<path class="st0" d="M104.4,206.5H100c0,0.4,0.2,0.7,0.5,0.9c0.3,0.2,0.7,0.4,1.1,0.4c0.5,0,1-0.2,1.3-0.5l1.2,0.5
	c-0.3,0.4-0.6,0.7-1,0.9c-0.5,0.2-0.9,0.3-1.4,0.3c-0.8,0-1.5-0.3-2.1-0.8c-0.5-0.5-0.8-1.3-0.8-2c0-0.8,0.3-1.5,0.8-2.1
	c0.5-0.5,1.2-0.8,2-0.8c0.8,0,1.6,0.3,2.1,0.8c0.6,0.6,0.8,1.4,0.8,2.2L104.4,206.5L104.4,206.5z M103,205.4
	c-0.1-0.3-0.3-0.6-0.5-0.8c-0.3-0.2-0.6-0.3-0.9-0.3c-0.4,0-0.7,0.1-1,0.3c-0.2,0.2-0.4,0.4-0.5,0.7L103,205.4L103,205.4z"/>
<path class="st0" d="M111.2,206.5h-4.4c0,0.4,0.2,0.7,0.5,0.9c0.3,0.2,0.7,0.4,1.1,0.4c0.5,0,1-0.2,1.3-0.5l1.2,0.5
	c-0.3,0.4-0.6,0.7-1,0.9c-0.5,0.2-0.9,0.3-1.4,0.3c-0.8,0-1.5-0.3-2.1-0.8c-0.5-0.5-0.8-1.3-0.8-2c-0.1-0.8,0.2-1.5,0.7-2.1
	c0.5-0.5,1.2-0.8,2-0.8c0.8,0,1.6,0.3,2.1,0.8c0.6,0.6,0.8,1.4,0.8,2.2L111.2,206.5L111.2,206.5z M109.8,205.4
	c-0.1-0.3-0.3-0.6-0.5-0.8c-0.3-0.2-0.6-0.3-0.9-0.3c-0.4,0-0.7,0.1-1,0.3c-0.2,0.2-0.4,0.4-0.5,0.7L109.8,205.4L109.8,205.4z"/>
<path class="st0" d="M116.5,201.3h1.4v7.6h-1.4v-0.6c-0.2,0.2-0.5,0.4-0.8,0.5c-0.3,0.1-0.6,0.2-0.9,0.2c-0.7,0-1.4-0.3-1.8-0.8
	c-0.5-0.5-0.8-1.3-0.8-2c0-0.8,0.2-1.5,0.8-2.1c0.5-0.5,1.1-0.8,1.8-0.8c0.3,0,0.6,0.1,0.9,0.2c0.3,0.1,0.6,0.3,0.8,0.6L116.5,201.3
	L116.5,201.3z M115.1,204.5c-0.4,0-0.8,0.2-1.1,0.4c-0.3,0.3-0.4,0.7-0.4,1.2c0,0.4,0.1,0.9,0.4,1.2c0.3,0.3,0.7,0.5,1.1,0.5
	c0.4,0,0.8-0.2,1.1-0.5c0.3-0.3,0.4-0.7,0.4-1.2c0-0.4-0.1-0.8-0.4-1.2C115.9,204.7,115.5,204.5,115.1,204.5z"/>
<path class="st0" d="M122.1,203.2c0.5,0,1,0.1,1.5,0.4c0.9,0.5,1.5,1.5,1.5,2.5c0,0.5-0.1,1-0.4,1.5c-0.2,0.4-0.6,0.8-1,1.1
	c-0.4,0.3-1,0.4-1.5,0.4c-0.8,0-1.5-0.3-2-0.8c-1.1-1.1-1.1-3,0-4.1c0,0,0,0,0.1-0.1C120.7,203.5,121.4,203.2,122.1,203.2z
	 M122.1,204.5c-0.4,0-0.8,0.2-1.1,0.4c-0.3,0.3-0.4,0.7-0.4,1.1c0,0.4,0.1,0.8,0.4,1.2c0.3,0.3,0.7,0.5,1.1,0.4
	c0.4,0,0.8-0.2,1.1-0.5c0.6-0.7,0.6-1.6,0-2.3C122.9,204.7,122.5,204.5,122.1,204.5L122.1,204.5z"/>
<path class="st0" d="M126.3,203.4h1.4v0.7c0.2-0.2,0.5-0.4,0.8-0.6c0.3-0.1,0.6-0.2,0.9-0.2c0.3,0,0.6,0.1,0.9,0.3
	c0.3,0.2,0.5,0.4,0.7,0.7c0.4-0.6,1.1-1,1.8-1c0.4,0,0.7,0.1,1,0.3c0.3,0.2,0.5,0.4,0.6,0.7c0.2,0.5,0.2,0.9,0.2,1.4v3.2h-1.4v-2.9
	c0-0.4,0-0.9-0.2-1.3c-0.2-0.2-0.4-0.3-0.7-0.3c-0.2,0-0.4,0.1-0.6,0.2c-0.2,0.1-0.3,0.3-0.4,0.6c-0.1,0.4-0.2,0.8-0.1,1.1v2.5h-1.4
	v-2.7c0-0.4,0-0.7-0.1-1.1c-0.1-0.2-0.2-0.4-0.3-0.5c-0.2-0.1-0.3-0.2-0.5-0.2c-0.2,0-0.4,0.1-0.6,0.2c-0.2,0.1-0.3,0.3-0.4,0.6
	c-0.1,0.4-0.2,0.8-0.1,1.2v2.4h-1.4L126.3,203.4L126.3,203.4z"/>
<path class="st0" d="M137,207.4c0.2,0,0.4,0.1,0.6,0.2c0.2,0.1,0.2,0.3,0.2,0.6c0,0.4-0.4,0.8-0.8,0.8c-0.4,0-0.8-0.4-0.8-0.8
	c0-0.2,0.1-0.4,0.2-0.6C136.6,207.5,136.8,207.4,137,207.4z"/>
</svg>
