<svg id="Capa_1" data-name="Capa 1" xmlns="http://www.w3.org/2000/svg" xmlns:xlink="http://www.w3.org/1999/xlink" viewBox="0 0 152.78 210.89"><defs><style>.cls-1{fill:url(#Degradado_sin_nombre_7);}.cls-2{fill:url(#Degradado_sin_nombre_7-2);}.cls-3{fill:#4d0e4f;}.cls-4{fill:#ec6550;}</style><linearGradient id="Degradado_sin_nombre_7" x1="665.19" y1="79.85" x2="665.19" y2="161.7" gradientUnits="userSpaceOnUse"><stop offset="0" stop-color="#ec6550"/><stop offset="1" stop-color="#4d0e4f"/></linearGradient><linearGradient id="Degradado_sin_nombre_7-2" x1="665.19" y1="50.93" x2="665.19" y2="190.63" xlink:href="#Degradado_sin_nombre_7"/></defs><title>Artify</title><path class="cls-1" d="M704,145.29l-4.71-7.95-3.14-5.3-6.25-10.54-3.14-5.3L665.19,79.85l-38.85,65.58a10.78,10.78,0,0,0,18.54,11l20.31-34.29,5.88,9.92L668,137.29a10.4,10.4,0,0,0,0,10.6h0l6.25-10.54h0l3.14-5.3-12.15-20.51-25,42.13a5.38,5.38,0,0,1-8.17,1.3,5.16,5.16,0,0,1-1.33-1.78,5.37,5.37,0,0,1,.25-5l34.21-57.73,18.4,31.06,3.14,5.3L693,137.34l3.14,5.3,3.28,5.54a5.37,5.37,0,0,1-9.25,5.48l-0.28-.48-3.14-5.3-3.11-5.24a3.65,3.65,0,0,0-6.28,0h0l6.25,10.54,1.91,3.23a10.87,10.87,0,0,0,1.37,1.83,10.7,10.7,0,0,0,5.23,3.11,10.84,10.84,0,0,0,2.69.34A10.79,10.79,0,0,0,705.35,153,11,11,0,0,0,704,145.29Z" transform="translate(-588.8 -50.93)"/><path class="cls-2" d="M665.19,50.93A69.85,69.85,0,1,0,735,120.78,69.85,69.85,0,0,0,665.19,50.93Zm0,132a62.14,62.14,0,1,1,62.14-62.14A62.14,62.14,0,0,1,665.19,182.91Z" transform="translate(-588.8 -50.93)"/><path class="cls-3" d="M606.21,204.31L588.8,249.45h8.93l3.67-9.3h18.42l3.53,9.3h8.93l-17.36-45.14h-8.71Zm-1.65,27.46,6.06-15.5,6,15.5H604.56Z" transform="translate(-588.8 -50.93)"/><path class="cls-3" d="M645.49,216.5a9,9,0,0,0-3.1,3.77v-4.2h-7.18v33.39h8.32V236l0-1.63q0-7,1.33-9.39t3.27-2.39a5.76,5.76,0,0,1,2.42.74l2.61-7.21a7.85,7.85,0,0,0-3.41-.86A7.48,7.48,0,0,0,645.49,216.5Z" transform="translate(-588.8 -50.93)"/><polygon class="cls-3" points="79.11 152.84 70.73 152.84 70.73 165.14 66.43 165.14 66.43 172.35 70.73 172.35 70.73 198.53 79.11 198.53 79.11 172.35 84.08 172.35 84.08 165.14 79.11 165.14 79.11 152.84"/><rect class="cls-3" x="88.28" y="165.14" width="8.38" height="33.39"/><path class="cls-3" d="M681.27,202.32a5.33,5.33,0,0,0-5.32,5.34,5.39,5.39,0,0,0,1.58,3.91,5.13,5.13,0,0,0,3.81,1.61,5.06,5.06,0,0,0,3.73-1.58,5.24,5.24,0,0,0,1.56-3.82,5.3,5.3,0,0,0-1.58-3.87A5.12,5.12,0,0,0,681.27,202.32Z" transform="translate(-588.8 -50.93)"/><path class="cls-3" d="M695.3,203.93A6.4,6.4,0,0,0,693,208.3q-0.18,1.2-.21,7.76h-3v7.09h3v26.3h8.38v-26.3h5.31v-7.09h-5.31l0-4.17a2.65,2.65,0,0,1,.49-1.9,3.13,3.13,0,0,1,2.15-.61,11.26,11.26,0,0,1,3,.52v-6.38a17.45,17.45,0,0,0-5.89-1.2A8.65,8.65,0,0,0,695.3,203.93Z" transform="translate(-588.8 -50.93)"/><polygon class="cls-3" points="144.82 165.14 135.96 181.72 127.92 165.14 119.99 165.14 131.75 189.59 125.39 201.23 133.4 201.23 152.78 165.14 144.82 165.14"/><path class="cls-4" d="M610.92,253.69l-1,.94a3.06,3.06,0,0,0-2.27-1.06,2.48,2.48,0,0,0-2.52,2.52,2.65,2.65,0,0,0,.32,1.32,2.31,2.31,0,0,0,.91.9,2.64,2.64,0,0,0,1.31.33,2.7,2.7,0,0,0,1.12-.23,4,4,0,0,0,1.12-.84l1,1a5.26,5.26,0,0,1-1.55,1.11,4.24,4.24,0,0,1-1.67.31,3.84,3.84,0,0,1-2.83-1.1,3.8,3.8,0,0,1-1.1-2.81,3.85,3.85,0,0,1,.5-2,3.73,3.73,0,0,1,1.44-1.39,4.05,4.05,0,0,1,2-.52A4.28,4.28,0,0,1,610.92,253.69Z" transform="translate(-588.8 -50.93)"/><path class="cls-4" d="M614.64,254.18a2.91,2.91,0,0,1,1.46.39,2.8,2.8,0,0,1,1.07,1.05,2.83,2.83,0,0,1,.38,1.44,2.88,2.88,0,0,1-.39,1.45,2.78,2.78,0,0,1-1.05,1.06,2.9,2.9,0,0,1-1.47.38,2.74,2.74,0,0,1-2-.84,2.91,2.91,0,0,1,.11-4.18A2.75,2.75,0,0,1,614.64,254.18Zm0,1.3a1.42,1.42,0,0,0-1.07.45,1.58,1.58,0,0,0-.43,1.14,1.61,1.61,0,0,0,.42,1.16,1.41,1.41,0,0,0,1.07.44,1.43,1.43,0,0,0,1.08-.45,1.77,1.77,0,0,0,0-2.3A1.43,1.43,0,0,0,614.67,255.48Z" transform="translate(-588.8 -50.93)"/><path class="cls-4" d="M618.87,254.32h1.38V255a2.35,2.35,0,0,1,.78-0.58,2.29,2.29,0,0,1,.94-0.19,1.75,1.75,0,0,1,.93.25,1.82,1.82,0,0,1,.67.74,2.22,2.22,0,0,1,.8-0.74,2.2,2.2,0,0,1,1-.25,1.93,1.93,0,0,1,1,.27,1.57,1.57,0,0,1,.64.71,3.8,3.8,0,0,1,.19,1.43v3.22h-1.39V257a2.38,2.38,0,0,0-.23-1.26,0.79,0.79,0,0,0-.7-0.33,1.05,1.05,0,0,0-.63.2,1.19,1.19,0,0,0-.42.56,3.46,3.46,0,0,0-.14,1.14v2.48h-1.39v-2.66a3.74,3.74,0,0,0-.11-1.07,1,1,0,0,0-.33-0.49,0.86,0.86,0,0,0-.53-0.16,1,1,0,0,0-.62.2,1.22,1.22,0,0,0-.42.57,3.54,3.54,0,0,0-.14,1.16v2.44h-1.38v-5.48Z" transform="translate(-588.8 -50.93)"/><path class="cls-4" d="M628.79,254.32h1.39V257a3.66,3.66,0,0,0,.11,1.07,0.94,0.94,0,0,0,.34.47,1,1,0,0,0,.58.17,1,1,0,0,0,.58-0.16,1,1,0,0,0,.36-0.48,3.69,3.69,0,0,0,.09-1v-2.69h1.38v2.32a5.7,5.7,0,0,1-.23,2,2.14,2.14,0,0,1-.82,1,2.5,2.5,0,0,1-1.37.35,2.43,2.43,0,0,1-1.46-.4,2.13,2.13,0,0,1-.78-1.12,6.81,6.81,0,0,1-.16-1.81v-2.28Z" transform="translate(-588.8 -50.93)"/><path class="cls-4" d="M635.2,254.32h1.38v0.56a3.3,3.3,0,0,1,.85-0.55,2.05,2.05,0,0,1,.78-0.15,1.88,1.88,0,0,1,1.38.57,2,2,0,0,1,.48,1.43v3.62H638.7v-2.4a6.09,6.09,0,0,0-.09-1.3,0.89,0.89,0,0,0-.31-0.49,0.86,0.86,0,0,0-.54-0.17,1,1,0,0,0-.72.28,1.49,1.49,0,0,0-.42.77,6.25,6.25,0,0,0-.06,1.11v2.2H635.2v-5.48Z" transform="translate(-588.8 -50.93)"/><path class="cls-4" d="M642.25,252.06a0.84,0.84,0,0,1,.62.26,0.87,0.87,0,0,1,.26.64,0.86,0.86,0,0,1-.26.63,0.83,0.83,0,0,1-.61.26,0.84,0.84,0,0,1-.63-0.26,0.88,0.88,0,0,1-.26-0.64A0.88,0.88,0,0,1,642.25,252.06Zm-0.69,2.26h1.38v5.48h-1.38v-5.48Z" transform="translate(-588.8 -50.93)"/><path class="cls-4" d="M644.71,252.3h1.38v2h0.82v1.18h-0.82v4.3h-1.38v-4.3H644v-1.18h0.71v-2Z" transform="translate(-588.8 -50.93)"/><path class="cls-4" d="M647.57,254.32H649l1.42,3.44,1.57-3.44h1.41L650,261.81h-1.42l1.13-2.42Z" transform="translate(-588.8 -50.93)"/><path class="cls-4" d="M661.52,254.32h1.38v5.48h-1.38v-0.58a2.69,2.69,0,0,1-.81.55,2.26,2.26,0,0,1-.88.17,2.44,2.44,0,0,1-1.84-.82,2.87,2.87,0,0,1-.78-2A3,3,0,0,1,658,255a2.39,2.39,0,0,1,1.82-.81,2.31,2.31,0,0,1,.93.19,2.53,2.53,0,0,1,.8.56v-0.6Zm-1.45,1.13a1.39,1.39,0,0,0-1.06.45,1.63,1.63,0,0,0-.42,1.16,1.64,1.64,0,0,0,.43,1.17,1.39,1.39,0,0,0,1.06.46,1.42,1.42,0,0,0,1.08-.45,1.65,1.65,0,0,0,.43-1.18,1.6,1.6,0,0,0-.43-1.16A1.44,1.44,0,0,0,660.07,255.45Z" transform="translate(-588.8 -50.93)"/><path class="cls-4" d="M664.52,254.32h1.38v0.56a3.3,3.3,0,0,1,.85-0.55,2.05,2.05,0,0,1,.78-0.15,1.88,1.88,0,0,1,1.38.57,2,2,0,0,1,.48,1.43v3.62H668v-2.4a6.09,6.09,0,0,0-.09-1.3,0.89,0.89,0,0,0-.31-0.49,0.86,0.86,0,0,0-.54-0.17,1,1,0,0,0-.72.28,1.49,1.49,0,0,0-.42.77,6.25,6.25,0,0,0-.06,1.11v2.2h-1.38v-5.48Z" transform="translate(-588.8 -50.93)"/><path class="cls-4" d="M675,252.2h1.38v7.6H675v-0.58a2.69,2.69,0,0,1-.81.55,2.26,2.26,0,0,1-.88.17,2.44,2.44,0,0,1-1.84-.82,2.87,2.87,0,0,1-.78-2,3,3,0,0,1,.75-2.08,2.39,2.39,0,0,1,1.82-.81,2.31,2.31,0,0,1,.93.19,2.53,2.53,0,0,1,.8.56V252.2Zm-1.45,3.25a1.39,1.39,0,0,0-1.06.45,1.63,1.63,0,0,0-.42,1.16,1.64,1.64,0,0,0,.43,1.17,1.39,1.39,0,0,0,1.06.46,1.42,1.42,0,0,0,1.08-.45,1.65,1.65,0,0,0,.43-1.18,1.6,1.6,0,0,0-.43-1.16A1.44,1.44,0,0,0,673.54,255.45Z" transform="translate(-588.8 -50.93)"/><path class="cls-4" d="M680.4,254.32h0.49q0-1.08,0-1.28a1.05,1.05,0,0,1,.38-0.72,1.42,1.42,0,0,1,.92-0.26,2.87,2.87,0,0,1,1,.2v1a1.86,1.86,0,0,0-.49-0.09,0.51,0.51,0,0,0-.35.1,0.44,0.44,0,0,0-.08.31v0.69h0.87v1.16h-0.87v4.32h-1.38v-4.32H680.4v-1.16Z" transform="translate(-588.8 -50.93)"/><path class="cls-4" d="M684,254.32h1.18V255a1.47,1.47,0,0,1,.51-0.62,1.23,1.23,0,0,1,.7-0.21,1.29,1.29,0,0,1,.56.14l-0.43,1.18a1,1,0,0,0-.4-0.12,0.63,0.63,0,0,0-.54.39,3.6,3.6,0,0,0-.22,1.54v2.49H684v-5.48Z" transform="translate(-588.8 -50.93)"/><path class="cls-4" d="M693.19,257.46h-4.42a1.47,1.47,0,0,0,.51.93,1.6,1.6,0,0,0,1.06.35,1.84,1.84,0,0,0,1.33-.54l1.16,0.54a2.74,2.74,0,0,1-1,.91,3.25,3.25,0,0,1-1.44.29,2.84,2.84,0,0,1-2.1-.81,2.77,2.77,0,0,1-.81-2,2.86,2.86,0,0,1,.81-2.08,2.72,2.72,0,0,1,2-.83,2.82,2.82,0,0,1,2.11.83,3,3,0,0,1,.81,2.19v0.26Zm-1.38-1.08a1.38,1.38,0,0,0-.54-0.75,1.56,1.56,0,0,0-.93-0.29,1.65,1.65,0,0,0-1,.32,1.8,1.8,0,0,0-.51.71h3Z" transform="translate(-588.8 -50.93)"/><path class="cls-4" d="M700,257.46h-4.42a1.47,1.47,0,0,0,.51.93,1.6,1.6,0,0,0,1.06.35,1.84,1.84,0,0,0,1.33-.54l1.16,0.54a2.74,2.74,0,0,1-1,.91,3.25,3.25,0,0,1-1.44.29,2.84,2.84,0,0,1-2.1-.81,2.77,2.77,0,0,1-.81-2A2.86,2.86,0,0,1,695,255a2.72,2.72,0,0,1,2-.83,2.82,2.82,0,0,1,2.11.83,3,3,0,0,1,.81,2.19v0.26Zm-1.38-1.08a1.38,1.38,0,0,0-.54-0.75,1.56,1.56,0,0,0-.93-0.29,1.65,1.65,0,0,0-1,.32,1.8,1.8,0,0,0-.51.71h3Z" transform="translate(-588.8 -50.93)"/><path class="cls-4" d="M705.33,252.2h1.38v7.6h-1.38v-0.58a2.69,2.69,0,0,1-.81.55,2.26,2.26,0,0,1-.88.17,2.44,2.44,0,0,1-1.84-.82,2.88,2.88,0,0,1-.78-2,3,3,0,0,1,.75-2.08,2.39,2.39,0,0,1,1.82-.81,2.31,2.31,0,0,1,.93.19,2.54,2.54,0,0,1,.8.56V252.2Zm-1.45,3.25a1.39,1.39,0,0,0-1.06.45,1.63,1.63,0,0,0-.42,1.16,1.64,1.64,0,0,0,.43,1.17,1.39,1.39,0,0,0,1.06.46,1.42,1.42,0,0,0,1.08-.45,1.65,1.65,0,0,0,.43-1.18,1.6,1.6,0,0,0-.43-1.16A1.44,1.44,0,0,0,703.88,255.45Z" transform="translate(-588.8 -50.93)"/><path class="cls-4" d="M710.89,254.18a2.91,2.91,0,0,1,1.46.39,2.85,2.85,0,0,1,1.45,2.49,2.88,2.88,0,0,1-.39,1.45,2.78,2.78,0,0,1-1.05,1.06,2.9,2.9,0,0,1-1.47.38,2.74,2.74,0,0,1-2-.84,2.91,2.91,0,0,1,.11-4.18A2.75,2.75,0,0,1,710.89,254.18Zm0,1.3a1.42,1.42,0,0,0-1.07.45,1.58,1.58,0,0,0-.43,1.14,1.61,1.61,0,0,0,.42,1.16,1.41,1.41,0,0,0,1.07.44,1.43,1.43,0,0,0,1.08-.45,1.77,1.77,0,0,0,0-2.3A1.43,1.43,0,0,0,710.91,255.48Z" transform="translate(-588.8 -50.93)"/><path class="cls-4" d="M715.12,254.32h1.38V255a2.35,2.35,0,0,1,.78-0.58,2.29,2.29,0,0,1,.94-0.19,1.75,1.75,0,0,1,.93.25,1.82,1.82,0,0,1,.67.74,2.17,2.17,0,0,1,1.85-1,1.93,1.93,0,0,1,1,.27,1.57,1.57,0,0,1,.64.71,3.8,3.8,0,0,1,.19,1.43v3.22h-1.39V257a2.38,2.38,0,0,0-.23-1.26,0.79,0.79,0,0,0-.7-0.33,1.05,1.05,0,0,0-.63.2,1.19,1.19,0,0,0-.42.56,3.46,3.46,0,0,0-.14,1.14v2.48h-1.39v-2.66a3.76,3.76,0,0,0-.11-1.07,1,1,0,0,0-.33-0.49,0.86,0.86,0,0,0-.53-0.16,1,1,0,0,0-.62.2,1.21,1.21,0,0,0-.42.57,3.53,3.53,0,0,0-.14,1.16v2.44h-1.38v-5.48Z" transform="translate(-588.8 -50.93)"/><path class="cls-4" d="M725.84,258.37a0.77,0.77,0,0,1,.56.23,0.75,0.75,0,0,1,.23.56,0.79,0.79,0,0,1-1.58,0,0.75,0.75,0,0,1,.23-0.56A0.77,0.77,0,0,1,725.84,258.37Z" transform="translate(-588.8 -50.93)"/></svg>